# xmcd CD database file
#
# Track frame offsets:
#	150
#	41931
#	68578
#	91639
#	119788
#	152220
#
# Disc length: 2406 seconds
#
# Revision: 0
# Processed by: cddbd v1.5.1PL0 Copyright (c) Steve Scherf et al.
# Submitted via: CDex 1.51
#
DISCID=4c096406
DTITLE=Miroslav Vitous - Journey's End
DYEAR=1983
DGENRE=Jazz
TTITLE0=U Dunaje U Prespurka
TTITLE1=Tess
TTITLE2=Carry On, No.1
TTITLE3=Paragraph Jay
TTITLE4=Only One
TTITLE5=Windfall
EXTD=YEAR: 1983
EXTT0=
EXTT1=
EXTT2=
EXTT3=
EXTT4=
EXTT5=
PLAYORDER=
